<svg xmlns="http://www.w3.org/2000/svg" xmlns:xlink="http://www.w3.org/1999/xlink" class="AboutRole-icon AboutRole-icon--damage" viewBox="0 0 207.3 238.6">
    <g fill="#e52128">
        <path d="M202.78 56.81c-3-2.28-86.39-50-90.13-52.27s-6.49-4.24-9-4.54c-2.16 0-4 1.51-9 4.54-3.74 2.28-87.14 50-90.13 52.27-4.24 3-4.52 3-4.52 9.09v104.53c0 7.77 1.52 9.09 4.51 11.36s86.39 50 90.13 52.27 6.51 4.26 9 4.54c2.16 0 4-1.51 9-4.54 3.74-2.28 87.14-50 90.13-52.27s4.51-3.59 4.51-11.36V65.9c.01-6.06-.28-6-4.5-9.09zm.45 111.86c0 7.52-1.46 8.8-4.33 11s-83 48.29-86.59 50.49c-4.78 2.92-6.59 4.39-8.66 4.39-2.41-.28-5.07-2.19-8.66-4.39S11.27 181.9 8.4 179.67s-4.33-3.5-4.33-11v-101c0-5.86.26-5.81 4.33-8.74 2.87-2.2 83-48.26 86.6-50.46 4.78-2.92 6.58-4.39 8.66-4.39 2.4.28 5.07 2.19 8.66 4.39S196 56.73 198.91 58.93c4.07 2.93 4.32 2.88 4.32 8.74z" transform="translate(-.01)"></path>
        <path d="M193.07 63.15c-2.69-2-77.91-44.77-81.28-46.82s-5.87-3.83-8.14-4c-2 0-3.65 1.36-8.13 4.08-3.38 2-78.6 44.77-81.3 46.82-3.82 2.73-4.07 2.57-4.07 8v93.92c0 7 1.37 8.17 4.07 10.21s77.92 44.92 81.29 47 5.87 3.83 8.13 4.08c2 0 3.64-1.36 8.13-4.08 3.37-2.05 78.6-44.92 81.29-47s4.07-3.22 4.07-10.21V71.17c.01-5.45-.23-5.29-4.06-8.02zM95 97.34a17.81 17.81 0 0 1 0-1.79c1.27-11.67 8.62-15.25 8.62-15.25s7.35 3.56 8.62 15.21a17.81 17.81 0 0 1 0 1.79v44.84H95zm-25.38 0v-1.81C71 83.86 78.3 80.3 78.3 80.3s7.35 3.56 8.62 15.21a17.81 17.81 0 0 1 0 1.79v44.82H69.65zm17.29 61H69.67v-9.53h17.27zm25.35 0H95v-9.53h17.27zm25.36 0h-17.24v-9.53h17.27zm0-61v44.84h-17.24V95.55C121.66 83.88 129 80.3 129 80.3s7.35 3.56 8.65 15.21c.05.49 0 1.79 0 1.79z" transform="translate(-.01)"></path>
    </g>
</svg>