<svg xmlns="http://www.w3.org/2000/svg" xmlns:xlink="http://www.w3.org/1999/xlink" class="media-graphic map-type-icon show-for-lg" viewBox="0 0 123.3 102.3">
    <g stroke="white" fill="white">
        <rect x="44" y="39.4" width="40" height="40.02" rx="5.9" ry="5.9" transform="rotate(-45 47.314 55.802)"></rect>
        <path d="M24.4 58.5A39.6 39.6 0 0 0 93.3 86l-5.4-4.6A32.4 32.4 0 1 1 62.5 27v-7.2a39.6 39.6 0 0 0-38.1 38.7z" transform="translate(-2.4 -12.9)"></path>
        <path d="M96.4 59.4A32.3 32.3 0 0 1 89.8 79l5.4 4.6a39.6 39.6 0 0 0-29.7-63.8V27a32.4 32.4 0 0 1 30.9 32.4z" transform="translate(-2.4 -12.9)"></path>
        <path d="M64.8 13.2a46.2 46.2 0 0 0-38.5 72.9v-5.7a43.5 43.5 0 0 1-4.2-31.7 42.4 42.4 0 0 1 32-31.4 43.2 43.2 0 0 1 47.6 63.1v5.7a46.2 46.2 0 0 0-36.9-72.9z" transform="translate(-2.4 -12.9)"></path>
        <path d="M64 102.5a43.1 43.1 0 0 1-33.9-16.4.4.4 0 0 0-.8.3v3.4a.4.4 0 0 0 .1.3 46.2 46.2 0 0 0 24.4 14.4l.3.2h.1l8.8 9.7a1.3 1.3 0 0 0 1.9 0l8.8-9.8h.2a46.2 46.2 0 0 0 24.6-14.5.4.4 0 0 0 .1-.3v-3.4a.4.4 0 0 0-.8-.3A43.1 43.1 0 0 1 64 102.5z" transform="translate(-2.4 -12.9)"></path>
    </g>
</svg>