<svg xmlns="http://www.w3.org/2000/svg" xmlns:xlink="http://www.w3.org/1999/xlink" class="media-graphic map-type-icon show-for-lg" viewBox="0 0 123.3 102.3">
    <g stroke="white" fill="white">
        <rect x="15.7" y="34.8" width="44.7" height="30.58" rx="1.7" ry="1.7"></rect>
        <path d="M124.8 76.4h-.1v-1.5h.1a.6.6 0 0 0 .6-.5.6.6 0 0 0-.6-.6h-.2v-1.5h.2a.6.6 0 0 0 .6-.5.6.6 0 0 0-.6-.6h-.2v-1.6h.3a.6.6 0 0 0 .6-.6.6.6 0 0 0-.6-.5h-.3v-1.6a1.2 1.2 0 0 0 1.1-1.3 1.2 1.2 0 0 0-1.3-1.1h-.1c-1.1-5.2-5.6-9.1-12.7-9.1h-10.5c-2.7-4.6-4.1-7.6-5.2-8.2s-5.9-1.9-13.2-1.9-9.9.3-10.7.7-1.3.4-1.3 3.2v11.5h-1V46.6a1.3 1.3 0 0 0-1.3-1.3h-3a1.3 1.3 0 0 0-1.3 1.3v32.8H3.2a.8.8 0 0 0-.8.8V84a.8.8 0 0 0 .8.8h2a.3.3 0 0 1 .3.3v.5a1 1 0 0 0 1 1H14a1 1 0 0 0 1-1v-.5a.3.3 0 0 1 .3-.3h7.3a12.8 12.8 0 0 1 8.6-3.1 12.8 12.8 0 0 1 8.6 3.1h2.8a.3.3 0 0 1 .3.3v.5a1 1 0 0 0 1 1h3.9l.5-.5a.3.3 0 0 1 .4 0l.5.5h4.3l.2-.2a.3.3 0 0 1 .4 0l.2.2h4.3l.5-.5a.3.3 0 0 1 .4 0l.5.5h3.2a1 1 0 0 0 1-1v-.5a.3.3 0 0 1 .3-.3h24a3.8 3.8 0 0 0-.6 1.7c0 2.5 1.8 2.9 4.5 2.6.1-.2 4.9-8.4 12.6-8.3s11.6 5.8 12.6 7.7v.3c3.2.4 5.3.1 5.3-2.6a5.1 5.1 0 0 0-1.3-2.6c2.8-.6 3.2-3 3.1-6.2a.6.6 0 0 0 .6-.4.6.6 0 0 0-.5-.6zM96.9 55.6l-10.8.5c-3.6-.1-4.1.4-4.1-.6s-.2-3.7-.2-4.7.1-1.8 1.2-1.8 7.4-.2 8.6-.1a2.9 2.9 0 0 1 2.8 2l2.3 4.8z" transform="translate(-2.4 -12.9)"></path>
        <path d="M105.1 92.5c-1.8 0-3.2 1.1-3.2 2.5s1.5 2.5 3.2 2.5 3.2-1.1 3.2-2.5-1.4-2.5-3.2-2.5zm0 4.2a1.4 1.4 0 1 1 1.7-1.3 1.5 1.5 0 0 1-1.7 1.3z" transform="translate(-2.4 -12.9)"></path>
        <path d="M108.9 84.5v-.7a1.1 1.1 0 0 0-1.1-1.1h-5.5a1.1 1.1 0 0 0-1.1 1.1v.6c-5.3 1.2-9.1 5-9.1 9.5a8.3 8.3 0 0 0 2.1 5.4.6.6 0 0 0 0 .8l2 2a.6.6 0 0 0 .8 0l.2-.3a16 16 0 0 0 15.6 0l.2.3a.6.6 0 0 0 .8 0l2-2a.6.6 0 0 0 0-.8 8.3 8.3 0 0 0 2.1-5.4c.1-4.4-3.7-8.2-9-9.4zm-5.3.2h3.2a.6.6 0 0 1 .6.6l-.5 2.9a.6.6 0 0 1-.6.6h-2a.6.6 0 0 1-.6-.6l-.7-2.9a.6.6 0 0 1 .6-.7zm-5.7 15.1l-.8 1.2a.3.3 0 0 1-.4 0l-1.1-1.1a.3.3 0 0 1 0-.4l1.3-.8a.3.3 0 0 1 .4 0l.7.7v.4zm7.2 1c-3.7 0-6.7-2.3-6.7-5.2s3-5.2 6.7-5.2 6.7 2.3 6.7 5.2-2.9 5.2-6.7 5.2zm9.7-1l-1.1 1.1a.3.3 0 0 1-.4 0l-.8-1.2h-.1v-.4l.7-.7a.3.3 0 0 1 .4 0l1.3.8a.3.3 0 0 1 0 .5z" transform="translate(-2.4 -12.9)"></path>
        <path d="M31.7 92.3c-1.8 0-3.2 1.1-3.2 2.5s1.5 2.5 3.2 2.5 3.2-1.1 3.2-2.5-1.4-2.5-3.2-2.5zm0 4.3a1.4 1.4 0 1 1 0-2.7 1.4 1.4 0 1 1 0 2.7z" transform="translate(-2.4 -12.9)"></path>
        <path d="M35.4 84.2v-.7a1.1 1.1 0 0 0-1.1-1.1h-5.4a1.1 1.1 0 0 0-1.1 1.1v.7c-5.3 1.2-9.1 5.1-9.1 9.6a8.5 8.5 0 0 0 2.3 5.5.6.6 0 0 0 0 .8l2 2a.5.5 0 0 0 .8 0l.2-.3a15.8 15.8 0 0 0 15.6 0l.2.3a.5.5 0 0 0 .8 0l2-2a.6.6 0 0 0 0-.8 8.5 8.5 0 0 0 2.1-5.5c-.1-4.5-4-8.3-9.3-9.6zm-5.3.2h3.2a.6.6 0 0 1 .6.6l-.5 2.9a.6.6 0 0 1-.6.6h-2a.6.6 0 0 1-.6-.6l-.7-2.9a.6.6 0 0 1 .6-.6zm-5.6 15.4l-.8 1.2a.3.3 0 0 1-.4 0L22 99.8a.3.3 0 0 1 0-.5l1.3-.8a.3.3 0 0 1 .4 0l.7.7h.1v.4zm7.2 1c-3.7 0-6.7-2.4-6.7-5.3s3-5.3 6.7-5.3 6.7 2.4 6.7 5.3-3 5.3-6.7 5.3zm9.7-1l-1.2 1.2a.3.3 0 0 1-.4 0l-.8-1.2h-.1v-.4l.7-.7a.3.3 0 0 1 .4 0l1.3.8a.3.3 0 0 1 .1.3z" transform="translate(-2.4 -12.9)"></path>
        <rect x="76.8" y="26.2" width="13" height="13.01" rx="1.7" ry="1.7" transform="rotate(-45 66.565 29.128)"></rect>
    </g>
</svg>