<svg xmlns="http://www.w3.org/2000/svg" xmlns:xlink="http://www.w3.org/1999/xlink" class="media-graphic map-type-icon show-for-lg" viewBox="0 0 123.3 102.3">
    <g stroke="white" fill="white">
        <path d="M112.9 58.5L69.5 15.1a7.7 7.7 0 0 0-10.9 0L15.1 58.5a7.7 7.7 0 0 0 0 10.9l43.4 43.4a7.7 7.7 0 0 0 10.9 0l43.4-43.4a7.7 7.7 0 0 0 .1-10.9zm-1.9 8.4L66.9 111a4.1 4.1 0 0 1-5.7 0L17 66.9a4.1 4.1 0 0 1 0-5.7L61.1 17a4.1 4.1 0 0 1 5.7 0L111 61.1a4.1 4.1 0 0 1 0 5.8z" transform="translate(-2.4 -12.9)"></path>
        <path d="M68.7 21.8a6.7 6.7 0 0 0-9.4 0L21.8 59.3a6.7 6.7 0 0 0 0 9.4l37.5 37.5a6.7 6.7 0 0 0 9.4 0l37.5-37.5a6.7 6.7 0 0 0 0-9.4zm-2.5 78.7a3.2 3.2 0 0 1-4.5 0L34.1 72.9h11.5v1.2a2.8 2.8 0 0 0 4.7 1.9L61 64.6a1 1 0 0 0 0-1.4L50.3 52a2.8 2.8 0 0 0-4.8 1.9v1.2H34.1l27.7-27.7a3.2 3.2 0 0 1 4.5 0l27.6 27.7H82.4v-1.2a2.8 2.8 0 0 0-4.7-1.9L67 63.3a1 1 0 0 0 0 1.4L77.7 76a2.8 2.8 0 0 0 4.8-1.9v-1.2h11.4z" transform="translate(-2.4 -12.9)"></path>
    </g>
</svg>