<svg xmlns="http://www.w3.org/2000/svg" xmlns:xlink="http://www.w3.org/1999/xlink" class="media-graphic map-type-icon show-for-lg" viewBox="0 0 123.3 102.3">
    <g stroke="white" fill="white">
        <rect x="22.1" y="46.7" width="25.4" height="25.45" rx="3.7" ry="3.7" transform="rotate(-45 18.148 55.883)"></rect>
        <path d="M57.1 47.7a25.2 25.2 0 0 0-21.3-13.5v4.5A20.6 20.6 0 0 1 55 54.9z" transform="translate(-2.4 -12.9)"></path>
        <path d="M33.9 38.8v-4.6a25.2 25.2 0 1 0 13.7 46.9l2.2-7.4a20.6 20.6 0 1 1-15.9-34.9z" transform="translate(-2.4 -12.9)"></path>
        <path d="M46.8 84.1a27.4 27.4 0 0 1-33.5-7.7.3.3 0 0 0-.5.2V79a29.4 29.4 0 0 0 15.5 9.2h.2l5.6 6.2a.8.8 0 0 0 1.2 0l5.7-6.2h.1a29.1 29.1 0 0 0 5-1.6z" transform="translate(-2.4 -12.9)"></path>
        <path d="M8.2 52.6a26.9 26.9 0 0 1 20.3-20 27.5 27.5 0 0 1 29.7 12.3l.7-2.4a29.4 29.4 0 1 0-48 33.9v-3.6a27.7 27.7 0 0 1-2.7-20.2z" transform="translate(-2.4 -12.9)"></path>
        <path d="M121.7 68.6h-.1v-1.5h.1a.6.6 0 0 0 .6-.5.6.6 0 0 0-.6-.6h-.2v-1.5h.2a.6.6 0 0 0 .6-.5.6.6 0 0 0-.6-.6h-.2v-1.6h.3a.6.6 0 0 0 .6-.6.6.6 0 0 0-.6-.5h-.3v-1.5a1.2 1.2 0 0 0 1.1-1.3 1.2 1.2 0 0 0-1.2-1.1h-.1c-1.1-5.1-5.6-9-12.6-9H98.1c-2.7-4.5-4-7.6-5.2-8.2s-5.8-1.9-13-1.9h-4.7L63.7 77.1h22a3.8 3.8 0 0 0-.6 1.7c0 2.5 1.7 2.8 4.5 2.5.1-.2 4.8-8.3 12.5-8.2s11.5 5.7 12.5 7.7v.3c3.2.4 5.2.1 5.2-2.6a5.1 5.1 0 0 0-1.3-2.6c2.8-.6 3.2-3 3.1-6.2a.6.6 0 0 0 .6-.4.6.6 0 0 0-.5-.7zM94 47.9l-10.7.5c-3.5-.1-4 .4-4-.6s-.2-3.7-.2-4.7.1-1.8 1.2-1.8 7.3-.2 8.6-.1a2.9 2.9 0 0 1 2.8 1.9l2.3 4.7z" transform="translate(-2.4 -12.9)"></path>
        <path d="M102.2 84.5c-1.8 0-3.2 1.1-3.2 2.5s1.4 2.5 3.2 2.5 3.2-1.1 3.2-2.5-1.4-2.5-3.2-2.5zm0 4.2a1.3 1.3 0 1 1 1.7-1.3 1.5 1.5 0 0 1-1.7 1.4z" transform="translate(-2.4 -12.9)"></path>
        <path d="M105.9 76.6V76a1.1 1.1 0 0 0-1.1-1.1h-5.4a1.1 1.1 0 0 0-1 1.1v.6c-5.2 1.2-9.1 5-9.1 9.4a8.3 8.3 0 0 0 2.1 5.4.5.5 0 0 0 0 .8l2 2a.5.5 0 0 0 .8 0l.2-.3a15.8 15.8 0 0 0 15.4 0l.2.3a.5.5 0 0 0 .8 0l2-2a.5.5 0 0 0 0-.8 8.2 8.2 0 0 0 2.1-5.4c0-4.4-3.8-8.2-9-9.4zm-5.3.2h3.1a.6.6 0 0 1 .6.6l-.5 2.9a.6.6 0 0 1-.6.6h-2a.6.6 0 0 1-.6-.6l-.7-2.9a.6.6 0 0 1 .7-.6zm-5.6 15l-.8 1.2a.3.3 0 0 1-.4 0l-1.1-1.1a.3.3 0 0 1 0-.4l1.3-.8a.3.3 0 0 1 .4 0l.7.7h.1v.4zm7.2 1c-3.7 0-6.7-2.3-6.7-5.2s3-5.2 6.7-5.2 6.7 2.3 6.7 5.2-3 5.3-6.7 5.3zm9.6-.9l-1.2 1.1a.3.3 0 0 1-.4 0l-.8-1.2h-.1v-.4l.7-.7a.3.3 0 0 1 .4 0l1.3.8a.3.3 0 0 1 .1.4z" transform="translate(-2.4 -12.9)"></path>
        <path d="M67.2 8.1L43.1 92.5l5.8 1.7L73 9.8l-5.8-1.7z"></path>
    </g>
</svg>